<?xml version="1.0" encoding="utf-8"?>
<!-- Generator: Adobe Illustrator 26.0.3, SVG Export Plug-In . SVG Version: 6.00 Build 0)  -->
<svg version="1.1" id="Layer_1" xmlns="http://www.w3.org/2000/svg" xmlns:xlink="http://www.w3.org/1999/xlink" x="0px" y="0px"
	 viewBox="0 0 184.2 80" style="enable-background:new 0 0 184.2 80;" xml:space="preserve">
<style type="text/css">
	.st0{fill:#7C3AED;}
</style>
<g>
	<path class="st0" d="M151.3,79.6h2.5l1.5-7c0.5-2.4,4.3-6.3,6.4-6.3c0.9,0,1.3,0.8,1.3,1.6c0,0.5-0.2,1.3-0.5,3l-1.9,8.8h2.5
		l1.5-6.8c0.5-2.4,4.3-6.5,6.5-6.5c0.9,0,1.2,0.8,1.2,1.6c0,0.5-0.2,1.3-0.5,3l-1.9,8.8h2.5l1.9-8.7c0.4-2.1,0.6-3.2,0.6-3.9
		c0-1.6-0.9-3.1-2.9-3.1c-2.5,0-4.9,2.1-6.5,4.1c0.4-2.3-0.6-4.1-2.9-4.1c-2.4,0-4.8,2-6.4,4l0.8-3.8l-2.6,0.5L151.3,79.6z
		 M134.9,76.7c0,1.6,1,3.3,3.4,3.3c2.8,0,4.8-2.1,6.1-3.9h0.1c-0.3,1.8-0.2,2.9,0.4,3.9l2.4-0.8c-0.5-1-0.6-2.3-0.2-4.4l2.2-10.5
		h-2.5l-1.3,6.3c-0.7,3.2-4.3,7.2-6.5,7.2c-1.1,0-1.5-0.9-1.5-1.7c0-0.4,0.2-1.5,0.6-3.3l1.8-8.5h-2.6l-1.8,8.4
		C135.1,74.9,134.9,75.9,134.9,76.7z M126.8,79.6h2.5l3.3-15.3H130L126.8,79.6z M132.3,60.4c1.1,0,1.9-1,1.9-2.1
		c0-0.9-0.4-1.6-1.5-1.6c-1.2,0-1.9,1.1-1.9,2.1C130.8,59.7,131.2,60.4,132.3,60.4z M111.8,79.6H123l0.5-2.2h-8.1l10-11.4l0.2-1.8
		h-10.9l-0.3,2.2h7.5L111.8,78V79.6z M104.5,79.6h2.7l4.5-22.7H109L104.5,79.6z M95.2,60.4l1.6,10h-7.1L95.2,60.4z M81.9,79.6h2.8
		l3.8-6.9h8.8l1.1,6.9h2.6l-3.7-22.9h-2.6L81.9,79.6z M66.7,79.6h2.5l1.5-6.9c0.5-2.4,4.5-6.5,6.8-6.5c1.1,0,1.4,0.8,1.4,1.6
		c0,0.5-0.1,1.3-0.5,3l-1.9,8.8H79l1.9-8.7c0.4-2.1,0.6-3.2,0.6-3.9c0-1.6-1-3.1-3.1-3.1c-2.6,0-5.1,2.1-6.7,4.1l0.9-3.9l-2.6,0.5
		L66.7,79.6z M55.4,79.6h2.5l1.4-6.7c0.2-1.1,1.6-3,2.1-3.6c1.1-1.4,2.1-2.6,3.4-2.6c0.6,0,1.3,0.2,1.3,0.2l0.6-2.8
		c0,0-0.5-0.2-1.2-0.2c-1.7,0-3.3,1.3-5,4h-0.1l0.9-3.9l-2.6,0.5L55.4,79.6z M41.9,75.1c0-4.5,3.5-9.1,6.7-9.1
		c1.2,0,2.1,0.3,2.1,0.3l-0.9,4.3c-0.7,3.2-4.3,7.2-6.3,7.2C42.6,77.8,41.9,77.2,41.9,75.1z M39.1,75.4c0,3.2,1.6,4.6,3.6,4.6
		c2.5,0,4.7-2.2,5.9-3.9h0.1c-0.1,0.6-0.2,1.2-0.2,1.6c0,0.9,0.2,1.6,0.6,2.2l2.3-0.8C51.2,78.6,51,78,51,77.1
		c0-0.6,0.1-1.4,0.3-2.3l2.2-10.5c-1.7,0-3-0.4-4.7-0.4C42.7,63.9,39.1,70.6,39.1,75.4z M33.1,66.1c1,0,1.4,0.6,1.4,1.3
		c0,2.3-4.6,3.7-6.4,4.2C28.9,68.5,31.1,66.1,33.1,66.1z M24.9,74.2c0,3.1,1.6,5.8,5.3,5.8c3.1,0,5.5-2,5.5-2l-0.5-2.1
		c0,0-2.3,1.9-4.7,1.9c-2.5,0-3-2.2-3-3.8v-0.4c2.3-0.5,9.5-2.4,9.5-6.7c0-2.3-2-3-3.7-3C28.6,63.9,24.9,69.5,24.9,74.2z M9.1,79.6
		h13l0.5-2.3H12.2l4-20.4h-2.7L9.1,79.6z"/>
	<path class="st0" d="M108.2,2c1.8,1.4,3.8,2.5,5.5,4.1c0-0.3,0-0.7,0-1c-3.5,2.8-7.3,5-11.7,2.4c-2.4-1.4-0.2-2.7,1.1-3.7
		c1.6-1.3,3-3.4,5.2-1.8c0.7,0.5,1.4-0.7,0.7-1.2c-2.3-1.7-3.9-0.8-5.8,1c-1.1,1-4.5,2.7-4,4.7c0.6,2.4,4.1,3.4,6.2,3.6
		c3.4,0.4,6.6-2.1,9.1-4.1c0.3-0.2,0.3-0.8,0-1C113,3.5,111,2.4,109.2,1C108.5,0.4,107.5,1.4,108.2,2z"/>
	<path class="st0" d="M112.9,6.8c0.4,2,1.1,3.8,1.1,5.9c0,0.9,1.4,0.9,1.4,0c-0.1-2.2-0.8-4.2-1.2-6.2
		C114.1,5.5,112.7,5.9,112.9,6.8z"/>
	<path class="st0" d="M101.3,9c-0.8,1.5-1.2,3.1-1.1,4.9c0.1,0.9,1.5,0.9,1.4,0c-0.1-1.5,0.2-2.8,0.9-4.1
		C102.9,8.9,101.7,8.2,101.3,9z"/>
	<path class="st0" d="M100.5,14.4c1.9,1,3.7,2.3,5.8,2.6c0.9,0.1,1.3-1.2,0.4-1.4c-2-0.3-3.7-1.6-5.5-2.5
		C100.4,12.8,99.7,14,100.5,14.4z"/>
	<path class="st0" d="M106.9,17c1.6-0.9,3.4-1.7,4.8-2.8c0.7-0.6-0.3-1.6-1-1c-1.4,1.1-3,1.8-4.5,2.6
		C105.4,16.2,106.1,17.4,106.9,17z"/>
	<path class="st0" d="M111.9,13.4c-0.3-1.6-0.9-3.2-1-4.9c0-0.9-1.4-0.9-1.4,0c0,1.8,0.7,3.5,1,5.3
		C110.7,14.7,112.1,14.3,111.9,13.4z"/>
	<path class="st0" d="M105.9,16.5c1.2,5.8,2.5,11.4,3.2,17.3c0.3,2.7,1.1,6.5-2.1,7.6c-1.8,0.6-3.8,0.8-5.8,1.1
		c-7.5,1.2-15.8,2.7-23.3,1.2c-1.4-0.3-2.8-0.7-3.7-1.7c-1.5-1.6-0.8-5.5-1.4-7.6c-0.9-3.6-2.1-7-2.4-10.8C70,20.4,69.8,16,71.6,13
		c2.3-3.9,9.8-2.8,13.6-3.1c5.5-0.4,11.2-0.9,16.7-0.3c0.9,0.1,0.9-1.3,0-1.4C95.4,7.6,89,8.5,82.6,8.7c-4.2,0.2-9.4-0.1-12.3,3.6
		c-1.8,2.4-1.6,6.5-1.6,9.3c0.1,3.9,1,7.6,2.1,11.3c0.6,2,1,3.8,1,5.8c0,1.1,0.1,2.4,0.6,3.4c0.6,1.3,1.9,2,3.2,2.5
		c4.1,1.6,9.3,1.1,13.5,0.8c4.5-0.3,8.9-1.2,13.3-1.7c2.2-0.3,4.6-0.6,6.6-1.7c1.7-1,1.6-3.8,1.6-5.4c-0.1-7-2.1-13.7-3.4-20.5
		C107.1,15.3,105.7,15.6,105.9,16.5z"/>
	<path class="st0" d="M86.7,20.1c-0.4,4.2-0.7,8.6,0.4,12.7c0.1,0.4,0.6,0.6,1,0.4c3.5-1.9,7.2-3.6,9.9-6.6c0.3-0.3,0.3-0.7,0-1
		c-2.9-3-6.6-5.4-10.3-7.1c-0.8-0.4-1.5,0.8-0.7,1.2c3.6,1.7,7.2,4,10,6.9c0-0.3,0-0.7,0-1c-2.6,2.9-6.3,4.5-9.6,6.3
		c0.3,0.1,0.7,0.3,1,0.4c-1.1-4-0.8-8.2-0.4-12.3C88.2,19.2,86.8,19.2,86.7,20.1z"/>
	<rect x="122.4" y="41.7" class="st0" width="61.8" height="4.1"/>
	<rect y="42.2" class="st0" width="61.8" height="4.1"/>
</g>
</svg>
